<svg width="20" height="19" viewBox="0 0 20 19" fill="none" xmlns="http://www.w3.org/2000/svg">
<path d="M10 19L8.55 17.6539C6.86667 16.0836 5.475 14.7289 4.375 13.5899C3.275 12.451 2.4 11.4285 1.75 10.5225C1.1 9.61648 0.645833 8.78383 0.3875 8.02452C0.129167 7.26521 0 6.48865 0 5.69482C0 4.07266 0.525 2.71798 1.575 1.63079C2.625 0.543597 3.93333 0 5.5 0C6.36667 0 7.19167 0.189827 7.975 0.569482C8.75833 0.949137 9.43333 1.48411 10 2.17439C10.5667 1.48411 11.2417 0.949137 12.025 0.569482C12.8083 0.189827 13.6333 0 14.5 0C16.0667 0 17.375 0.543597 18.425 1.63079C19.475 2.71798 20 4.07266 20 5.69482C20 6.48865 19.8708 7.26521 19.6125 8.02452C19.3542 8.78383 18.9 9.61648 18.25 10.5225C17.6 11.4285 16.725 12.451 15.625 13.5899C14.525 14.7289 13.1333 16.0836 11.45 17.6539L10 19ZM10 16.2044C11.6 14.7203 12.9167 13.4475 13.95 12.3862C14.9833 11.3249 15.8 10.4017 16.4 9.61648C17 8.83129 17.4167 8.13238 17.65 7.51975C17.8833 6.90713 18 6.29882 18 5.69482C18 4.6594 17.6667 3.79655 17 3.10627C16.3333 2.41599 15.5 2.07084 14.5 2.07084C13.7167 2.07084 12.9917 2.2995 12.325 2.75681C11.6583 3.21412 11.2 3.79655 10.95 4.50409H9.05C8.8 3.79655 8.34167 3.21412 7.675 2.75681C7.00833 2.2995 6.28333 2.07084 5.5 2.07084C4.5 2.07084 3.66667 2.41599 3 3.10627C2.33333 3.79655 2 4.6594 2 5.69482C2 6.29882 2.11667 6.90713 2.35 7.51975C2.58333 8.13238 3 8.83129 3.6 9.61648C4.2 10.4017 5.01667 11.3249 6.05 12.3862C7.08333 13.4475 8.4 14.7203 10 16.2044Z" fill="#888DC7"/>
</svg>
