<svg width="12" height="11" viewBox="0 0 12 11" fill="none" xmlns="http://www.w3.org/2000/svg">
<path d="M5.54316 0.8545C5.72981 0.495073 6.24399 0.495072 6.43064 0.854499L7.76879 3.43138C7.84617 3.58039 7.99318 3.68061 8.16016 3.6982L11.2229 4.02075C11.6642 4.06722 11.8308 4.62272 11.4879 4.90436L9.30833 6.69469C9.16253 6.81445 9.09657 7.00608 9.13775 7.19021L9.72829 9.83006C9.82016 10.2407 9.39456 10.5743 9.01775 10.3869L6.2095 8.99068C6.06929 8.92096 5.90451 8.92096 5.7643 8.99068L2.95605 10.3869C2.57924 10.5743 2.15364 10.2407 2.24551 9.83006L2.83605 7.19021C2.87724 7.00608 2.81127 6.81445 2.66547 6.69469L0.485908 4.90436C0.143031 4.62272 0.309627 4.06722 0.750907 4.02075L3.81364 3.6982C3.98062 3.68061 4.12763 3.58039 4.20501 3.43138L5.54316 0.8545Z" fill="#888DC7"/>
</svg>
